<?xml version="1.0" standalone="no"?>
<!DOCTYPE svg PUBLIC "-//W3C//DTD SVG 20010904//EN"
    "http://www.w3.org/TR/2001/REC-SVG-20010904/DTD/svg10.dtd">
<svg version="1.0" xmlns="http://www.w3.org/2000/svg"
    width="500.000000pt" height="500.000000pt" viewBox="0 0 500.000000 500.000000"
    preserveAspectRatio="xMidYMid meet">

<g transform="translate(0.000000,500.000000) scale(0.100000,-0.100000)"
fill="#000000" stroke="none">
<path d="M2460 4025 l0 -85 35 0 35 0 0 85 0 85 -35 0 -35 0 0 -85z"/>
<path d="M2160 3975 l-24 -25 59 -60 59 -60 28 27 28 27 -57 58 c-32 32 -60
58 -63 58 -4 0 -17 -11 -30 -25z"/>
<path d="M2735 3940 l-59 -60 24 -25 24 -26 63 63 63 62 -22 23 c-12 13 -24
23 -28 23 -3 0 -32 -27 -65 -60z"/>
<path d="M1722 3663 c-61 -131 -116 -258 -122 -283 -28 -105 13 -232 100 -314
28 -26 50 -50 50 -54 0 -4 -36 -84 -81 -178 l-80 -171 -152 -33 c-84 -18 -156
-36 -160 -40 -4 -4 66 -41 155 -83 90 -41 212 -98 271 -126 l108 -51 -75 144
c-42 79 -76 149 -76 156 0 7 36 90 81 185 l81 173 36 -10 c58 -16 162 -3 222
27 96 49 126 90 247 349 62 130 114 244 117 254 4 14 -46 40 -285 151 -160 73
-298 135 -308 138 -14 4 -37 -38 -129 -234z m389 37 c129 -60 235 -114 237
-119 2 -5 -11 -37 -28 -70 -28 -57 -33 -61 -65 -61 -28 0 -35 4 -35 20 0 19
-7 20 -221 20 -212 0 -221 -1 -226 -20 -3 -11 -11 -20 -18 -20 -39 0 -67 -180
-42 -262 8 -27 14 -48 12 -48 -11 0 -46 74 -55 116 -15 69 -2 119 72 278 33
72 76 164 94 204 18 39 35 72 38 72 2 0 109 -49 237 -110z m-494 -1156 c13
-21 23 -42 23 -46 0 -7 -136 54 -147 66 -6 5 77 25 92 22 6 -2 20 -20 32 -42z"/>
<path d="M2848 3762 c-245 -113 -296 -140 -292 -154 3 -10 56 -125 117 -255
122 -260 150 -299 247 -348 60 -30 164 -43 222 -27 l36 10 81 -173 c45 -95 81
-178 81 -185 0 -7 -34 -77 -76 -156 l-75 -144 108 51 c59 28 181 85 271 126
89 42 160 79 156 82 -3 3 -75 22 -160 41 l-154 35 -75 158 c-40 87 -77 166
-80 177 -4 14 6 30 40 61 90 83 130 197 107 306 -14 66 -229 533 -246 533 -6
0 -145 -62 -308 -138z m378 -157 c106 -228 119 -271 103 -347 -9 -45 -43 -118
-54 -118 -2 0 4 21 12 48 28 90 -3 262 -48 262 -12 0 -19 7 -19 20 0 19 -7 20
-220 20 -213 0 -220 -1 -220 -20 0 -16 -7 -20 -35 -20 -32 0 -37 4 -65 61 -17
33 -30 65 -28 70 4 11 459 228 472 225 5 -1 51 -92 102 -201z m268 -1035 c15
-5 3 -14 -55 -42 -41 -19 -75 -34 -77 -33 -4 4 26 64 40 82 9 12 48 9 92 -7z"/>
<path d="M853 2203 l27 -4 0 -345 0 -344 -25 0 c-14 0 -25 -4 -25 -10 0 -6 28
-10 65 -10 37 0 65 4 65 10 0 6 -11 10 -25 10 l-25 0 0 323 0 322 36 -65 c19
-36 98 -185 177 -332 l142 -268 72 0 73 0 0 354 0 355 28 4 c15 2 -7 4 -48 4
-41 0 -60 -2 -42 -4 l32 -4 0 -252 0 -252 -31 55 c-16 30 -77 146 -135 258
l-105 202 -142 -1 c-78 -1 -130 -4 -114 -6z"/>
<path d="M2450 1972 c-19 -9 -45 -32 -57 -51 l-23 -34 0 47 0 46 -122 -1 c-68
-1 -111 -4 -95 -6 l27 -4 0 -230 0 -229 -25 0 c-14 0 -25 -4 -25 -10 0 -6 53
-10 140 -10 87 0 140 4 140 10 0 6 -9 10 -21 10 -20 0 -21 3 -17 173 3 151 6
177 24 212 22 42 59 59 75 33 5 -7 9 -104 9 -215 0 -174 -2 -203 -15 -203 -8
0 -15 -4 -15 -10 0 -6 50 -10 130 -10 80 0 130 4 130 10 0 6 -9 10 -21 10 -20
0 -21 3 -17 184 3 169 5 187 24 213 28 37 69 43 78 11 3 -13 6 -110 6 -215 0
-186 -1 -193 -20 -193 -11 0 -20 -4 -20 -10 0 -6 55 -10 146 -10 94 0 143 4
139 10 -3 6 -17 10 -30 10 l-23 0 -4 188 c-3 202 -9 227 -60 265 -14 11 -49
22 -76 25 -64 6 -116 -18 -144 -68 l-22 -37 -19 38 c-32 65 -123 89 -197 51z"/>
<path d="M3219 1976 c-64 -23 -109 -57 -137 -104 -24 -41 -27 -57 -27 -132 0
-105 27 -169 91 -213 80 -55 244 -60 314 -9 34 25 70 80 70 106 0 15 -9 6 -29
-29 -44 -76 -123 -105 -190 -70 -39 20 -61 79 -61 165 l0 70 146 0 146 0 -7
48 c-19 127 -87 182 -225 182 -30 -1 -71 -7 -91 -14z m120 -20 c6 -7 14 -50
18 -95 l6 -81 -58 0 -57 0 3 78 c3 47 10 86 18 95 16 21 54 22 70 3z"/>
<path d="M3902 1976 c-18 -9 -40 -29 -50 -46 -23 -40 -32 -38 -32 10 l0 40
-122 -1 c-68 -1 -109 -4 -93 -8 l30 -6 3 -228 2 -227 -30 0 c-16 0 -30 -4 -30
-10 0 -6 55 -10 145 -10 90 0 145 4 145 10 0 6 -11 10 -25 10 l-25 0 0 140 c0
154 11 226 41 265 24 30 64 33 79 6 6 -12 10 -100 10 -215 0 -189 -1 -196 -20
-196 -11 0 -20 -4 -20 -10 0 -6 55 -10 145 -10 90 0 145 4 145 10 0 6 -13 10
-29 10 l-30 0 -3 188 c-3 203 -9 227 -60 265 -36 27 -130 33 -176 13z"/>
<path d="M1521 1973 l27 -4 4 -192 c4 -222 11 -246 81 -278 73 -33 158 -19
201 31 l25 30 7 -35 6 -35 114 0 c69 0 114 4 114 10 0 6 -11 10 -25 10 l-25 0
0 235 0 235 -122 -1 c-68 -1 -112 -4 -98 -8 l25 -7 0 -189 c0 -166 -2 -193
-18 -216 -22 -33 -50 -41 -74 -24 -16 12 -18 35 -21 229 l-3 216 -122 -1 c-67
-1 -110 -4 -96 -6z"/>
<path d="M1200 1160 l0 -60 38 0 c52 0 62 10 59 56 -4 54 -12 64 -58 64 l-39
0 0 -60z m78 28 c3 -14 -3 -18 -27 -18 -25 0 -31 4 -31 21 0 16 5 20 27 17 17
-2 29 -10 31 -20z m1 -37 c23 -15 5 -41 -29 -41 -25 0 -30 4 -30 25 0 19 5 25
23 25 12 0 28 -4 36 -9z"/>
<path d="M1366 1201 c-25 -28 -17 -72 17 -91 24 -13 30 -13 55 0 33 19 42 69
17 94 -22 22 -68 20 -89 -3z m78 -7 c22 -21 20 -47 -5 -70 -19 -17 -23 -17
-47 -3 -33 18 -39 44 -16 70 21 23 47 24 68 3z"/>
<path d="M1530 1160 l0 -60 33 0 c45 0 77 25 77 60 0 40 -24 60 -71 60 l-39 0
0 -60z m85 34 c22 -23 15 -55 -16 -73 -39 -22 -59 -9 -59 37 0 21 3 42 7 45
12 13 51 7 68 -9z"/>
<path d="M1700 1160 l0 -60 43 2 42 1 -37 4 c-32 4 -38 8 -38 28 0 19 6 24 33
28 l32 4 -32 1 c-25 2 -33 7 -33 21 0 15 8 21 38 24 l37 4 -42 1 -43 2 0 -60z"/>
<path d="M1844 1195 c-33 -50 11 -106 70 -91 20 5 26 12 25 34 0 25 -1 26 -9
6 -11 -29 -26 -37 -50 -29 -33 11 -44 42 -25 72 14 21 22 24 51 20 20 -4 32
-2 29 4 -4 5 -22 9 -40 9 -26 0 -39 -6 -51 -25z"/>
<path d="M2030 1216 c0 -2 -11 -29 -25 -60 -14 -31 -20 -56 -15 -56 6 0 10 7
10 15 0 22 76 21 84 -1 4 -9 9 -15 11 -12 8 8 -44 118 -55 118 -5 0 -10 -2
-10 -4z m40 -68 c0 -5 -11 -8 -25 -8 -27 0 -31 10 -14 42 11 21 12 21 25 -3 7
-13 13 -27 14 -31z"/>
<path d="M2150 1205 c-16 -19 -5 -34 37 -51 30 -13 33 -17 22 -30 -9 -11 -22
-14 -43 -10 -22 4 -27 3 -16 -4 32 -21 80 -5 80 27 0 7 -16 19 -35 27 -45 19
-49 50 -5 44 17 -3 30 -1 30 4 0 14 -57 9 -70 -7z"/>
<path d="M2350 1160 l0 -60 35 0 c38 0 85 36 85 65 0 29 -38 55 -80 55 l-40 0
0 -60z m81 40 c12 -7 19 -21 19 -40 0 -31 -22 -50 -59 -50 -18 0 -21 6 -21 50
0 44 3 50 21 50 11 0 29 -5 40 -10z"/>
<path d="M2520 1160 l0 -60 48 2 c43 1 44 2 10 5 -32 4 -38 8 -38 28 0 19 6
24 33 28 l32 4 -32 1 c-25 2 -33 7 -33 21 0 15 8 21 38 24 34 3 33 4 -10 5
l-48 2 0 -60z"/>
<path d="M2730 1160 c0 -33 4 -60 10 -60 6 0 10 19 10 43 l0 42 21 -33 c23
-35 41 -32 54 9 11 32 24 21 28 -23 3 -34 4 -30 5 20 2 67 -8 79 -28 32 -22
-53 -36 -55 -61 -10 -12 22 -26 40 -31 40 -4 0 -8 -27 -8 -60z"/>
<path d="M2930 1160 l0 -60 43 2 42 1 -37 4 c-32 4 -38 8 -38 28 0 19 6 24 33
28 l32 4 -32 1 c-25 2 -33 7 -33 21 0 15 8 21 38 24 l37 4 -42 1 -43 2 0 -60z"/>
<path d="M3072 1160 c1 -64 1 -64 7 -16 l6 48 34 -46 c19 -25 38 -46 43 -46 4
0 8 27 8 60 0 33 -4 60 -10 60 -5 0 -10 -19 -10 -42 l-1 -43 -39 45 -39 45 1
-65z"/>
<path d="M3230 1160 l0 -60 33 0 c45 0 77 25 77 60 0 40 -24 60 -71 60 l-39 0
0 -60z m85 34 c22 -23 15 -55 -16 -73 -39 -22 -59 -9 -59 37 0 21 3 42 7 45
12 13 51 7 68 -9z"/>
<path d="M3406 1198 c-21 -30 -20 -54 4 -78 37 -37 93 -20 105 32 14 57 -75
94 -109 46z m82 0 c7 -7 12 -24 12 -40 0 -50 -66 -62 -91 -17 -23 43 44 92 79
57z"/>
<path d="M3593 1213 c20 -2 37 -7 37 -9 0 -3 -16 -25 -35 -48 -19 -24 -35 -46
-35 -50 0 -3 24 -5 53 -4 l52 1 -44 6 -43 6 42 53 42 52 -54 -2 c-43 -1 -46
-2 -15 -5z"/>
<path d="M3718 1160 c-14 -33 -23 -60 -18 -60 4 0 10 7 14 15 8 22 72 20 85
-2 6 -11 11 -13 11 -5 0 17 -48 112 -58 112 -4 0 -19 -27 -34 -60z m62 -12 c0
-5 -11 -8 -25 -8 -27 0 -31 10 -14 42 11 21 12 21 25 -3 7 -13 13 -27 14 -31z"/>
</g>
</svg>
